%TF.GenerationSoftware,KiCad,Pcbnew,10.0.1*%
%TF.CreationDate,2026-04-21T01:17:04-04:00*%
%TF.ProjectId,dap-proto-board-full,6461702d-7072-46f7-946f-2d626f617264,rev?*%
%TF.SameCoordinates,Original*%
%TF.FileFunction,Soldermask,Bot*%
%TF.FilePolarity,Negative*%
%FSLAX46Y46*%
G04 Gerber Fmt 4.6, Leading zero omitted, Abs format (unit mm)*
G04 Created by KiCad (PCBNEW 10.0.1) date 2026-04-21 01:17:04*
%MOMM*%
%LPD*%
G01*
G04 APERTURE LIST*
%ADD10C,1.700000*%
%ADD11R,1.700000X1.700000*%
%ADD12C,0.650000*%
%ADD13O,1.000000X2.100000*%
%ADD14O,1.000000X1.800000*%
%ADD15C,0.800000*%
%ADD16C,6.400000*%
%ADD17C,1.400000*%
G04 APERTURE END LIST*
D10*
%TO.C,J3*%
X132100000Y-104254000D03*
X125100000Y-104254000D03*
%TD*%
D11*
%TO.C,J6*%
X94150000Y-92900000D03*
D10*
X94150000Y-95440000D03*
X94150000Y-97980000D03*
X94150000Y-100520000D03*
X94150000Y-103060000D03*
X94150000Y-105600000D03*
%TD*%
D12*
%TO.C,J2*%
X115890000Y-62665000D03*
X110110000Y-62665000D03*
D13*
X117320000Y-63165000D03*
D14*
X117320000Y-58985000D03*
D13*
X108680000Y-63165000D03*
D14*
X108680000Y-58985000D03*
%TD*%
D15*
%TO.C,H1*%
X94575000Y-71975000D03*
X95277944Y-70277944D03*
X95277944Y-73672056D03*
X96975000Y-69575000D03*
D16*
X96975000Y-71975000D03*
D15*
X96975000Y-74375000D03*
X98672056Y-70277944D03*
X98672056Y-73672056D03*
X99375000Y-71975000D03*
%TD*%
D11*
%TO.C,J7*%
X133400000Y-68460000D03*
D10*
X133400000Y-71000000D03*
X133400000Y-73540000D03*
X133400000Y-76080000D03*
X133400000Y-78620000D03*
X133400000Y-81160000D03*
X133400000Y-83700000D03*
X133400000Y-86240000D03*
%TD*%
D15*
%TO.C,H2*%
X114600000Y-110000000D03*
X115302944Y-108302944D03*
X115302944Y-111697056D03*
X117000000Y-107600000D03*
D16*
X117000000Y-110000000D03*
D15*
X117000000Y-112400000D03*
X118697056Y-108302944D03*
X118697056Y-111697056D03*
X119400000Y-110000000D03*
%TD*%
D17*
%TO.C,U6*%
X99270000Y-104170000D03*
X109270000Y-104170000D03*
%TD*%
M02*
