M48
; DRILL file KiCad 10.0.1 date 2026-04-21T01:17:04
; FORMAT={-:-/ absolute / metric / decimal}
; #@! TF.CreationDate,2026-04-21T01:17:04-04:00
; #@! TF.GenerationSoftware,Kicad,Pcbnew,10.0.1
; #@! TF.FileFunction,MixedPlating,1,6
FMAT,2
METRIC
; #@! TA.AperFunction,Plated,PTH,ComponentDrill
T1C0.200
; #@! TA.AperFunction,Plated,PTH,ViaDrill
T2C0.300
; #@! TA.AperFunction,Plated,PTH,ViaDrill
T3C0.330
; #@! TA.AperFunction,Plated,PTH,ComponentDrill
T4C0.500
; #@! TA.AperFunction,Plated,PTH,ComponentDrill
T5C0.600
; #@! TA.AperFunction,Plated,PTH,ComponentDrill
T6C1.000
; #@! TA.AperFunction,Plated,PTH,ComponentDrill
T7C3.200
; #@! TA.AperFunction,NonPlated,NPTH,ComponentDrill
T8C0.650
; #@! TA.AperFunction,NonPlated,NPTH,ComponentDrill
T9C1.400
; #@! TA.AperFunction,NonPlated,NPTH,ComponentDrill
T10C1.700
%
G90
G05
T1
X101.725Y-84.8
X101.825Y-95.438
X102.5Y-83.525
X102.5Y-86.075
X103.1Y-94.662
X103.1Y-96.212
X103.275Y-84.8
X104.375Y-95.438
X105.345Y-68.3
X105.345Y-69.05
X105.345Y-69.8
X106.045Y-68.3
X106.045Y-69.05
X106.045Y-69.8
X111.85Y-69.05
X111.85Y-70.05
X111.85Y-71.05
X112.85Y-69.05
X112.85Y-70.05
X112.85Y-71.05
X113.85Y-69.05
X113.85Y-70.05
X113.85Y-71.05
T2
X96.9Y-77.475
X96.9Y-89.525
X97.1Y-109.02
X99.8Y-87.78
X99.81Y-86.81
X99.9Y-93.69
X99.9Y-94.71
X99.95Y-95.5
X100.65Y-92.8
X100.95Y-96.188
X101.65Y-101.5
X101.655Y-100.95
X101.75Y-82.65
X101.96Y-76.753
X102.5Y-76.55
X102.52Y-88.0
X103.285Y-81.655
X103.295Y-66.995
X103.295Y-67.955
X103.48Y-88.0
X103.51Y-75.55
X103.573Y-78.027
X103.85Y-101.5
X103.855Y-100.95
X104.0Y-77.55
X104.145Y-71.575
X104.15Y-76.85
X104.15Y-86.55
X104.215Y-67.025
X104.29Y-79.35
X104.465Y-70.425
X104.465Y-71.025
X104.65Y-67.55
X104.695Y-71.575
X104.7Y-76.45
X105.05Y-97.18
X105.175Y-67.025
X105.186Y-77.414
X105.251Y-91.251
X105.37Y-92.75
X105.4Y-77.95
X105.425Y-71.025
X105.45Y-82.95
X105.6Y-67.65
X105.703Y-90.799
X106.084Y-82.213
X106.113Y-81.637
X106.15Y-76.0
X106.3Y-96.22
X106.3Y-97.18
X106.355Y-92.725
X106.471Y-80.057
X106.476Y-80.634
X106.5Y-67.65
X106.57Y-86.45
X106.62Y-84.45
X106.778Y-79.539
X106.87Y-82.2
X107.323Y-79.795
X107.35Y-75.57
X107.35Y-76.53
X107.55Y-86.45
X107.58Y-84.45
X107.7Y-98.02
X107.83Y-82.2
X107.85Y-72.85
X107.893Y-80.45
X108.045Y-68.945
X108.1Y-84.45
X108.45Y-80.3
X108.594Y-89.242
X108.65Y-76.72
X108.65Y-77.68
X108.68Y-60.95
X108.7Y-98.02
X108.8Y-95.17
X109.1Y-73.75
X109.1Y-74.71
X109.169Y-89.194
X109.2Y-77.68
X109.45Y-76.35
X109.5Y-75.85
X109.55Y-65.35
X109.55Y-72.05
X109.62Y-66.3
X109.8Y-63.74
X109.806Y-77.406
X110.0Y-92.0
X110.55Y-93.4
X110.6Y-78.57
X110.6Y-79.53
X110.9Y-90.07
X110.9Y-91.03
X110.95Y-66.95
X111.237Y-97.725
X111.237Y-98.475
X111.237Y-99.025
X111.25Y-84.15
X111.25Y-85.25
X111.25Y-86.4
X111.44Y-109.02
X111.47Y-65.8
X111.55Y-79.07
X111.55Y-80.03
X111.6Y-66.85
X111.821Y-62.787
X112.15Y-99.05
X112.3Y-73.65
X112.375Y-62.254
X112.4Y-84.15
X112.4Y-85.25
X112.4Y-86.4
X112.4Y-89.55
X112.4Y-90.07
X112.4Y-91.03
X112.5Y-77.1
X112.5Y-78.82
X112.5Y-79.78
X112.6Y-73.25
X112.6Y-74.05
X112.7Y-99.05
X112.714Y-77.636
X112.75Y-62.7
X112.75Y-95.1
X112.75Y-96.473
X112.75Y-97.1
X112.75Y-98.1
X112.95Y-73.65
X113.1Y-66.9
X113.31Y-66.36
X113.45Y-78.85
X113.482Y-91.936
X113.5Y-84.15
X113.5Y-85.25
X113.5Y-86.4
X113.6Y-62.3
X113.6Y-72.5
X113.734Y-62.892
X114.0Y-90.12
X114.0Y-91.08
X114.014Y-91.712
X114.25Y-63.15
X114.25Y-93.93
X114.25Y-95.1
X114.4Y-78.69
X114.59Y-91.68
X114.897Y-79.2
X115.0Y-73.996
X115.0Y-64.8
X115.0Y-75.9
X115.2Y-65.52
X115.355Y-89.495
X115.387Y-77.4
X115.43Y-80.65
X115.95Y-73.9
X116.0Y-77.68
X116.02Y-89.5
X116.09Y-74.46
X116.2Y-63.74
X116.2Y-68.2
X116.55Y-77.68
X116.55Y-79.74
X116.55Y-80.7
X116.865Y-84.85
X116.92Y-70.3
X116.97Y-81.95
X116.98Y-89.5
X116.99Y-90.45
X116.99Y-91.45
X117.0Y-92.15
X117.06Y-67.45
X117.1Y-80.7
X117.32Y-61.0
X117.4Y-69.75
X117.44Y-84.85
X117.585Y-85.765
X117.65Y-80.7
X117.88Y-70.3
X117.93Y-81.95
X117.95Y-77.05
X118.0Y-69.3
X118.01Y-90.45
X118.01Y-91.45
X118.05Y-87.5
X118.4Y-84.85
X118.545Y-85.765
X118.583Y-69.279
X118.82Y-81.95
X119.55Y-77.15
X119.65Y-85.15
X119.73Y-81.95
X120.237Y-79.752
X120.3Y-85.577
X120.9Y-87.74
X121.15Y-86.004
X121.3Y-84.477
X121.676Y-79.685
X121.9Y-87.15
X122.47Y-97.35
X123.397Y-94.6
X123.397Y-95.6
X123.43Y-97.35
X124.55Y-68.8
X124.85Y-85.2
X124.85Y-86.2
X125.03Y-94.62
X125.03Y-95.58
X125.037Y-91.337
X125.087Y-87.312
X125.25Y-92.4
X125.7Y-61.05
X125.81Y-85.25
X125.83Y-86.22
X125.84Y-93.35
X126.43Y-88.7
X126.43Y-90.0
X126.8Y-61.05
X127.08Y-89.343
X127.207Y-95.2
X127.207Y-96.2
X127.73Y-88.7
X127.73Y-90.0
X127.9Y-61.05
X128.33Y-85.32
X128.7Y-113.7
X128.8Y-91.55
X128.809Y-87.219
X128.83Y-95.22
X128.83Y-96.18
X128.85Y-112.7
X128.85Y-114.7
X129.2Y-113.7
X129.285Y-90.572
X129.285Y-91.147
X129.65Y-89.1
X129.7Y-113.7
X130.15Y-87.62
X130.15Y-88.58
X130.21Y-85.7
X130.314Y-96.964
X130.55Y-89.25
X130.739Y-96.539
X130.81Y-86.7
X130.875Y-90.941
X130.879Y-91.489
X131.1Y-87.62
X131.1Y-88.58
X131.713Y-96.948
X132.263Y-96.952
X133.075Y-111.4
X133.075Y-116.0
T3
X96.1Y-80.2
X97.8Y-77.892
X97.8Y-78.6
X103.9Y-100.0
T4
X94.575Y-71.975
X95.278Y-70.278
X95.278Y-73.672
X96.975Y-69.575
X96.975Y-74.375
X98.672Y-70.278
X98.672Y-73.672
X99.375Y-71.975
X114.6Y-110.0
X115.303Y-108.303
X115.303Y-111.697
X117.0Y-107.6
X117.0Y-112.4
X118.697Y-108.303
X118.697Y-111.697
X119.4Y-110.0
T6
X94.15Y-92.9
X94.15Y-95.44
X94.15Y-97.98
X94.15Y-100.52
X94.15Y-103.06
X94.15Y-105.6
X133.4Y-68.46
X133.4Y-71.0
X133.4Y-73.54
X133.4Y-76.08
X133.4Y-78.62
X133.4Y-81.16
X133.4Y-83.7
X133.4Y-86.24
T7
X96.975Y-71.975
X117.0Y-110.0
T8
X110.11Y-62.665
X115.89Y-62.665
T9
X99.27Y-104.17
X109.27Y-104.17
T10
X125.1Y-104.254
X132.1Y-104.254
T5
X108.68Y-59.385G85X108.68Y-58.585
G05
X108.68Y-63.715G85X108.68Y-62.615
G05
X117.32Y-59.385G85X117.32Y-58.585
G05
X117.32Y-63.715G85X117.32Y-62.615
G05
M30
