%TF.GenerationSoftware,KiCad,Pcbnew,10.0.1*%
%TF.CreationDate,2026-04-21T01:17:04-04:00*%
%TF.ProjectId,dap-proto-board-full,6461702d-7072-46f7-946f-2d626f617264,rev?*%
%TF.SameCoordinates,Original*%
%TF.FileFunction,Paste,Top*%
%TF.FilePolarity,Positive*%
%FSLAX46Y46*%
G04 Gerber Fmt 4.6, Leading zero omitted, Abs format (unit mm)*
G04 Created by KiCad (PCBNEW 10.0.1) date 2026-04-21 01:17:04*
%MOMM*%
%LPD*%
G01*
G04 APERTURE LIST*
G04 Aperture macros list*
%AMRoundRect*
0 Rectangle with rounded corners*
0 $1 Rounding radius*
0 $2 $3 $4 $5 $6 $7 $8 $9 X,Y pos of 4 corners*
0 Add a 4 corners polygon primitive as box body*
4,1,4,$2,$3,$4,$5,$6,$7,$8,$9,$2,$3,0*
0 Add four circle primitives for the rounded corners*
1,1,$1+$1,$2,$3*
1,1,$1+$1,$4,$5*
1,1,$1+$1,$6,$7*
1,1,$1+$1,$8,$9*
0 Add four rect primitives between the rounded corners*
20,1,$1+$1,$2,$3,$4,$5,0*
20,1,$1+$1,$4,$5,$6,$7,0*
20,1,$1+$1,$6,$7,$8,$9,0*
20,1,$1+$1,$8,$9,$2,$3,0*%
G04 Aperture macros list end*
%ADD10C,0.010000*%
%ADD11RoundRect,0.130000X-0.130000X-0.305000X0.130000X-0.305000X0.130000X0.305000X-0.130000X0.305000X0*%
%ADD12RoundRect,0.062500X-0.350000X-0.062500X0.350000X-0.062500X0.350000X0.062500X-0.350000X0.062500X0*%
%ADD13RoundRect,0.140000X-0.140000X-0.170000X0.140000X-0.170000X0.140000X0.170000X-0.140000X0.170000X0*%
%ADD14C,0.250000*%
%ADD15R,2.200000X2.800000*%
%ADD16R,2.800000X2.800000*%
%ADD17RoundRect,0.075000X-0.075000X-0.175000X0.075000X-0.175000X0.075000X0.175000X-0.075000X0.175000X0*%
%ADD18RoundRect,0.135000X-0.135000X-0.185000X0.135000X-0.185000X0.135000X0.185000X-0.135000X0.185000X0*%
%ADD19R,0.900000X1.700000*%
%ADD20RoundRect,0.140000X0.140000X0.170000X-0.140000X0.170000X-0.140000X-0.170000X0.140000X-0.170000X0*%
%ADD21RoundRect,0.140000X-0.170000X0.140000X-0.170000X-0.140000X0.170000X-0.140000X0.170000X0.140000X0*%
%ADD22RoundRect,0.135000X-0.185000X0.135000X-0.185000X-0.135000X0.185000X-0.135000X0.185000X0.135000X0*%
%ADD23RoundRect,0.225000X-0.225000X-0.250000X0.225000X-0.250000X0.225000X0.250000X-0.225000X0.250000X0*%
%ADD24RoundRect,0.140000X0.170000X-0.140000X0.170000X0.140000X-0.170000X0.140000X-0.170000X-0.140000X0*%
%ADD25RoundRect,0.150000X0.625000X-0.150000X0.625000X0.150000X-0.625000X0.150000X-0.625000X-0.150000X0*%
%ADD26RoundRect,0.250000X0.650000X-0.350000X0.650000X0.350000X-0.650000X0.350000X-0.650000X-0.350000X0*%
%ADD27R,0.920000X1.330000*%
%ADD28RoundRect,0.050000X-0.070000X0.250000X-0.070000X-0.250000X0.070000X-0.250000X0.070000X0.250000X0*%
%ADD29RoundRect,0.050000X0.250000X0.070000X-0.250000X0.070000X-0.250000X-0.070000X0.250000X-0.070000X0*%
%ADD30RoundRect,0.218750X-0.218750X-0.256250X0.218750X-0.256250X0.218750X0.256250X-0.218750X0.256250X0*%
%ADD31RoundRect,0.040000X-0.040000X-0.605000X0.040000X-0.605000X0.040000X0.605000X-0.040000X0.605000X0*%
%ADD32RoundRect,0.062500X-0.387500X-0.062500X0.387500X-0.062500X0.387500X0.062500X-0.387500X0.062500X0*%
%ADD33RoundRect,0.250000X1.500000X-0.250000X1.500000X0.250000X-1.500000X0.250000X-1.500000X-0.250000X0*%
%ADD34RoundRect,0.250001X1.449999X-0.499999X1.449999X0.499999X-1.449999X0.499999X-1.449999X-0.499999X0*%
%ADD35RoundRect,0.250000X-0.450000X-0.350000X0.450000X-0.350000X0.450000X0.350000X-0.450000X0.350000X0*%
%ADD36RoundRect,0.227500X-0.227500X-0.227500X0.227500X-0.227500X0.227500X0.227500X-0.227500X0.227500X0*%
%ADD37RoundRect,0.050000X-0.350000X-0.050000X0.350000X-0.050000X0.350000X0.050000X-0.350000X0.050000X0*%
%ADD38RoundRect,0.050000X-0.050000X-0.350000X0.050000X-0.350000X0.050000X0.350000X-0.050000X0.350000X0*%
%ADD39RoundRect,0.250001X0.462499X0.624999X-0.462499X0.624999X-0.462499X-0.624999X0.462499X-0.624999X0*%
%ADD40RoundRect,0.225000X0.225000X0.250000X-0.225000X0.250000X-0.225000X-0.250000X0.225000X-0.250000X0*%
%ADD41R,1.400000X0.300000*%
%ADD42R,1.330000X0.920000*%
%ADD43RoundRect,0.050000X-0.250000X-0.070000X0.250000X-0.070000X0.250000X0.070000X-0.250000X0.070000X0*%
%ADD44RoundRect,0.150000X0.512500X0.150000X-0.512500X0.150000X-0.512500X-0.150000X0.512500X-0.150000X0*%
%ADD45RoundRect,0.150000X0.150000X0.425000X-0.150000X0.425000X-0.150000X-0.425000X0.150000X-0.425000X0*%
%ADD46RoundRect,0.075000X0.075000X0.500000X-0.075000X0.500000X-0.075000X-0.500000X0.075000X-0.500000X0*%
%ADD47O,1.000000X2.100000*%
%ADD48O,1.000000X1.800000*%
%ADD49RoundRect,0.135000X0.185000X-0.135000X0.185000X0.135000X-0.185000X0.135000X-0.185000X-0.135000X0*%
%ADD50R,0.254000X0.812800*%
%ADD51R,0.812800X0.254000*%
%ADD52R,2.209800X2.209800*%
%ADD53R,0.254000X0.254000*%
%ADD54RoundRect,0.135000X0.135000X0.185000X-0.135000X0.185000X-0.135000X-0.185000X0.135000X-0.185000X0*%
%ADD55RoundRect,0.218750X0.256250X-0.218750X0.256250X0.218750X-0.256250X0.218750X-0.256250X-0.218750X0*%
%ADD56R,0.600000X1.500000*%
%ADD57R,1.500000X2.340000*%
%ADD58RoundRect,0.242500X0.242500X-0.242500X0.242500X0.242500X-0.242500X0.242500X-0.242500X-0.242500X0*%
%ADD59RoundRect,0.062500X0.062500X-0.337500X0.062500X0.337500X-0.062500X0.337500X-0.062500X-0.337500X0*%
%ADD60RoundRect,0.062500X0.337500X-0.062500X0.337500X0.062500X-0.337500X0.062500X-0.337500X-0.062500X0*%
G04 APERTURE END LIST*
D10*
%TO.C,J1*%
X96672385Y-76830869D02*
X97172385Y-76830869D01*
X97172385Y-78780869D01*
X94872385Y-78780869D01*
X94872385Y-77530869D01*
X95572385Y-77530869D01*
X95572385Y-76130869D01*
X96672385Y-76130869D01*
X96672385Y-76830869D01*
G36*
X96672385Y-76830869D02*
G01*
X97172385Y-76830869D01*
X97172385Y-78780869D01*
X94872385Y-78780869D01*
X94872385Y-77530869D01*
X95572385Y-77530869D01*
X95572385Y-76130869D01*
X96672385Y-76130869D01*
X96672385Y-76830869D01*
G37*
X97172385Y-90130869D02*
X96672385Y-90130869D01*
X96672385Y-90830869D01*
X95572385Y-90830869D01*
X95572385Y-89430869D01*
X94872385Y-89430869D01*
X94872385Y-88180869D01*
X97172385Y-88180869D01*
X97172385Y-90130869D01*
G36*
X97172385Y-90130869D02*
G01*
X96672385Y-90130869D01*
X96672385Y-90830869D01*
X95572385Y-90830869D01*
X95572385Y-89430869D01*
X94872385Y-89430869D01*
X94872385Y-88180869D01*
X97172385Y-88180869D01*
X97172385Y-90130869D01*
G37*
%TD*%
D11*
%TO.C,U12*%
X105395000Y-68550000D03*
X105395000Y-69550000D03*
X105995000Y-68550000D03*
X105995000Y-69550000D03*
D12*
X104482500Y-68050000D03*
X104482500Y-68550000D03*
X104482500Y-69050000D03*
X104482500Y-69550000D03*
X104482500Y-70050000D03*
X106907500Y-70050000D03*
X106907500Y-69550000D03*
X106907500Y-69050000D03*
X106907500Y-68550000D03*
X106907500Y-68050000D03*
%TD*%
D13*
%TO.C,C40*%
X116920000Y-70300000D03*
X117880000Y-70300000D03*
%TD*%
D14*
%TO.C,Y1*%
X122920000Y-94600000D03*
X122920000Y-95600000D03*
X123330000Y-95600000D03*
X123330000Y-94600000D03*
%TD*%
D15*
%TO.C,J3*%
X131200000Y-107954000D03*
X133200000Y-100554000D03*
D16*
X123800000Y-100554000D03*
%TD*%
D17*
%TO.C,U1*%
X110000000Y-65350000D03*
X110700000Y-65350000D03*
%TD*%
D18*
%TO.C,R6*%
X125840000Y-93350000D03*
X126860000Y-93350000D03*
%TD*%
D19*
%TO.C,SW2*%
X121150000Y-68800000D03*
X124550000Y-68800000D03*
%TD*%
D20*
%TO.C,C7*%
X103480000Y-88000000D03*
X102520000Y-88000000D03*
%TD*%
D21*
%TO.C,C33*%
X112400000Y-90070000D03*
X112400000Y-91030000D03*
%TD*%
D22*
%TO.C,R8*%
X114400000Y-78690000D03*
X114400000Y-79710000D03*
%TD*%
D23*
%TO.C,C44*%
X113325000Y-75900000D03*
X114875000Y-75900000D03*
%TD*%
D24*
%TO.C,C17*%
X110600000Y-79530000D03*
X110600000Y-78570000D03*
%TD*%
D13*
%TO.C,C1*%
X124850000Y-85200000D03*
X125810000Y-85200000D03*
%TD*%
D20*
%TO.C,C20*%
X117930000Y-81950000D03*
X116970000Y-81950000D03*
%TD*%
%TO.C,C18*%
X123430000Y-97350000D03*
X122470000Y-97350000D03*
%TD*%
D25*
%TO.C,J4*%
X129200000Y-114700000D03*
X129200000Y-113700000D03*
X129200000Y-112700000D03*
D26*
X133075000Y-116000000D03*
X133075000Y-111400000D03*
%TD*%
D27*
%TO.C,U5*%
X103060000Y-85570000D03*
X103060000Y-84030000D03*
X101940000Y-85570000D03*
X101940000Y-84030000D03*
D28*
X103250000Y-86950000D03*
D29*
X104150000Y-86550000D03*
X104150000Y-86050000D03*
X104150000Y-85550000D03*
X104150000Y-85050000D03*
X104150000Y-84550000D03*
X104150000Y-84050000D03*
X104150000Y-83550000D03*
X104150000Y-83050000D03*
D28*
X103250000Y-82650000D03*
X101750000Y-82650000D03*
D29*
X100850000Y-83050000D03*
X100850000Y-83550000D03*
X100850000Y-84050000D03*
X100850000Y-84550000D03*
X100850000Y-85050000D03*
X100850000Y-85550000D03*
X100850000Y-86050000D03*
X100850000Y-86550000D03*
D28*
X101750000Y-86950000D03*
%TD*%
D30*
%TO.C,L1*%
X109812500Y-77400000D03*
X111387500Y-77400000D03*
%TD*%
D13*
%TO.C,C48*%
X113320000Y-65400000D03*
X114280000Y-65400000D03*
%TD*%
D31*
%TO.C,U4*%
X104750000Y-77300000D03*
D32*
X103325000Y-76550000D03*
X103325000Y-77050000D03*
X103325000Y-77550000D03*
X103325000Y-78050000D03*
X106175000Y-78050000D03*
X106175000Y-77550000D03*
X106175000Y-77050000D03*
X106175000Y-76550000D03*
%TD*%
D24*
%TO.C,C9*%
X107350000Y-76530000D03*
X107350000Y-75570000D03*
%TD*%
D21*
%TO.C,C21*%
X112500000Y-78820000D03*
X112500000Y-79780000D03*
%TD*%
%TO.C,C11*%
X99800000Y-86820000D03*
X99800000Y-87780000D03*
%TD*%
D18*
%TO.C,R5*%
X121920000Y-92800000D03*
X122940000Y-92800000D03*
%TD*%
D33*
%TO.C,J5*%
X126800000Y-63050000D03*
X126800000Y-61050000D03*
D34*
X132550000Y-65400000D03*
X132550000Y-58700000D03*
%TD*%
D35*
%TO.C,Y3*%
X110550000Y-95100000D03*
X112750000Y-95100000D03*
X112750000Y-93400000D03*
X110550000Y-93400000D03*
%TD*%
D31*
%TO.C,U7*%
X107900000Y-79800000D03*
D32*
X106475000Y-79050000D03*
X106475000Y-79550000D03*
X106475000Y-80050000D03*
X106475000Y-80550000D03*
X109325000Y-80550000D03*
X109325000Y-80050000D03*
X109325000Y-79550000D03*
X109325000Y-79050000D03*
%TD*%
D36*
%TO.C,U8*%
X111270000Y-84120000D03*
X111270000Y-85250000D03*
X111270000Y-86380000D03*
X112400000Y-84120000D03*
X112400000Y-85250000D03*
X112400000Y-86380000D03*
X113530000Y-84120000D03*
X113530000Y-85250000D03*
X113530000Y-86380000D03*
D37*
X108950000Y-82450000D03*
X108950000Y-82850000D03*
X108950000Y-83250000D03*
X108950000Y-83650000D03*
X108950000Y-84050000D03*
X108950000Y-84450000D03*
X108950000Y-84850000D03*
X108950000Y-85250000D03*
X108950000Y-85650000D03*
X108950000Y-86050000D03*
X108950000Y-86450000D03*
X108950000Y-86850000D03*
X108950000Y-87250000D03*
X108950000Y-87650000D03*
X108950000Y-88050000D03*
D38*
X109600000Y-88700000D03*
X110000000Y-88700000D03*
X110400000Y-88700000D03*
X110800000Y-88700000D03*
X111200000Y-88700000D03*
X111600000Y-88700000D03*
X112000000Y-88700000D03*
X112400000Y-88700000D03*
X112800000Y-88700000D03*
X113200000Y-88700000D03*
X113600000Y-88700000D03*
X114000000Y-88700000D03*
X114400000Y-88700000D03*
X114800000Y-88700000D03*
X115200000Y-88700000D03*
D37*
X115850000Y-88050000D03*
X115850000Y-87650000D03*
X115850000Y-87250000D03*
X115850000Y-86850000D03*
X115850000Y-86450000D03*
X115850000Y-86050000D03*
X115850000Y-85650000D03*
X115850000Y-85250000D03*
X115850000Y-84850000D03*
X115850000Y-84450000D03*
X115850000Y-84050000D03*
X115850000Y-83650000D03*
X115850000Y-83250000D03*
X115850000Y-82850000D03*
X115850000Y-82450000D03*
D38*
X115200000Y-81800000D03*
X114800000Y-81800000D03*
X114400000Y-81800000D03*
X114000000Y-81800000D03*
X113600000Y-81800000D03*
X113200000Y-81800000D03*
X112800000Y-81800000D03*
X112400000Y-81800000D03*
X112000000Y-81800000D03*
X111600000Y-81800000D03*
X111200000Y-81800000D03*
X110800000Y-81800000D03*
X110400000Y-81800000D03*
X110000000Y-81800000D03*
X109600000Y-81800000D03*
%TD*%
D13*
%TO.C,C12*%
X129850000Y-86700000D03*
X130810000Y-86700000D03*
%TD*%
D21*
%TO.C,C54*%
X103295000Y-66995000D03*
X103295000Y-67955000D03*
%TD*%
D39*
%TO.C,D1*%
X105287500Y-61250000D03*
X102312500Y-61250000D03*
%TD*%
D24*
%TO.C,C15*%
X107700000Y-98980000D03*
X107700000Y-98020000D03*
%TD*%
D18*
%TO.C,R4*%
X104290000Y-79350000D03*
X105310000Y-79350000D03*
%TD*%
%TO.C,R16*%
X116040000Y-67450000D03*
X117060000Y-67450000D03*
%TD*%
D24*
%TO.C,C38*%
X121650000Y-80700000D03*
X121650000Y-79740000D03*
%TD*%
D40*
%TO.C,C42*%
X111875000Y-75900000D03*
X110325000Y-75900000D03*
%TD*%
D24*
%TO.C,C45*%
X108650000Y-77680000D03*
X108650000Y-76720000D03*
%TD*%
D41*
%TO.C,J1*%
X97272385Y-79230869D03*
X97272385Y-79730869D03*
X97272385Y-80230869D03*
X97272385Y-80730869D03*
X97272385Y-81230869D03*
X97272385Y-81730869D03*
X97272385Y-82230869D03*
X97272385Y-82730869D03*
X97272385Y-83230869D03*
X97272385Y-83730869D03*
X97272385Y-84230869D03*
X97272385Y-84730869D03*
X97272385Y-85230869D03*
X97272385Y-85730869D03*
X97272385Y-86230869D03*
X97272385Y-86730869D03*
X97272385Y-87230869D03*
X97272385Y-87730869D03*
%TD*%
D20*
%TO.C,C19*%
X119780000Y-81950000D03*
X118820000Y-81950000D03*
%TD*%
%TO.C,C29*%
X116980000Y-89500000D03*
X116020000Y-89500000D03*
%TD*%
D21*
%TO.C,C13*%
X131100000Y-87620000D03*
X131100000Y-88580000D03*
%TD*%
D22*
%TO.C,R9*%
X113450000Y-78840000D03*
X113450000Y-79860000D03*
%TD*%
D42*
%TO.C,U3*%
X103870000Y-94877500D03*
X102330000Y-94877500D03*
X103870000Y-95997500D03*
X102330000Y-95997500D03*
D43*
X105250000Y-94687500D03*
D28*
X104850000Y-93787500D03*
X104350000Y-93787500D03*
X103850000Y-93787500D03*
X103350000Y-93787500D03*
X102850000Y-93787500D03*
X102350000Y-93787500D03*
X101850000Y-93787500D03*
X101350000Y-93787500D03*
D43*
X100950000Y-94687500D03*
X100950000Y-96187500D03*
D28*
X101350000Y-97087500D03*
X101850000Y-97087500D03*
X102350000Y-97087500D03*
X102850000Y-97087500D03*
X103350000Y-97087500D03*
X103850000Y-97087500D03*
X104350000Y-97087500D03*
X104850000Y-97087500D03*
D43*
X105250000Y-96187500D03*
%TD*%
D44*
%TO.C,U11*%
X112425000Y-99025000D03*
X112425000Y-98075000D03*
X112425000Y-97125000D03*
X110150000Y-97125000D03*
X110150000Y-98075000D03*
X110150000Y-99025000D03*
%TD*%
D24*
%TO.C,C16*%
X108700000Y-98980000D03*
X108700000Y-98020000D03*
%TD*%
D13*
%TO.C,C6*%
X105370000Y-92750000D03*
X106330000Y-92750000D03*
%TD*%
D20*
%TO.C,C8*%
X126210000Y-92400000D03*
X125250000Y-92400000D03*
%TD*%
D45*
%TO.C,J2*%
X116200000Y-63740000D03*
X115400000Y-63740000D03*
D46*
X114250000Y-63740000D03*
X113250000Y-63740000D03*
X112750000Y-63740000D03*
X111750000Y-63740000D03*
D45*
X110600000Y-63740000D03*
X109800000Y-63740000D03*
X109800000Y-63740000D03*
X110600000Y-63740000D03*
D46*
X111250000Y-63740000D03*
X112250000Y-63740000D03*
X113750000Y-63740000D03*
X114750000Y-63740000D03*
D45*
X115400000Y-63740000D03*
X116200000Y-63740000D03*
D47*
X117320000Y-63165000D03*
D48*
X117320000Y-58985000D03*
D47*
X108680000Y-63165000D03*
D48*
X108680000Y-58985000D03*
%TD*%
D24*
%TO.C,C26*%
X128830000Y-96180000D03*
X128830000Y-95220000D03*
%TD*%
D49*
%TO.C,R1*%
X99900000Y-94710000D03*
X99900000Y-93690000D03*
%TD*%
D21*
%TO.C,C50*%
X108800000Y-95170000D03*
X108800000Y-96130000D03*
%TD*%
D24*
%TO.C,C47*%
X115200000Y-66480000D03*
X115200000Y-65520000D03*
%TD*%
D20*
%TO.C,C32*%
X107580000Y-84450000D03*
X106620000Y-84450000D03*
%TD*%
D13*
%TO.C,C27*%
X106570000Y-86450000D03*
X107530000Y-86450000D03*
%TD*%
D50*
%TO.C,U2*%
X128330378Y-87400000D03*
X127830252Y-87400000D03*
X127330126Y-87400000D03*
X126830000Y-87400000D03*
X126329874Y-87400000D03*
X125829748Y-87400000D03*
D51*
X125136963Y-88092785D03*
X125136963Y-88592911D03*
X125136963Y-89093037D03*
X125136963Y-89593163D03*
X125136963Y-90093289D03*
X125136963Y-90593415D03*
D50*
X125829748Y-91286200D03*
X126329874Y-91286200D03*
X126830000Y-91286200D03*
X127330126Y-91286200D03*
X127830252Y-91286200D03*
X128330378Y-91286200D03*
D51*
X129023163Y-90593415D03*
X129023163Y-90093289D03*
X129023163Y-89593163D03*
X129023163Y-89093037D03*
X129023163Y-88592911D03*
X129023163Y-88092785D03*
D52*
X127080063Y-89343100D03*
D53*
X128806120Y-87617100D03*
X125354006Y-87617100D03*
X125354006Y-91069100D03*
X128806120Y-91069100D03*
%TD*%
D24*
%TO.C,C4*%
X128330000Y-86280000D03*
X128330000Y-85320000D03*
%TD*%
D20*
%TO.C,C2*%
X125810000Y-86200000D03*
X124850000Y-86200000D03*
%TD*%
D21*
%TO.C,C31*%
X114250000Y-92970000D03*
X114250000Y-93930000D03*
%TD*%
D54*
%TO.C,R10*%
X118010000Y-91450000D03*
X116990000Y-91450000D03*
%TD*%
D13*
%TO.C,C34*%
X117440000Y-84850000D03*
X118400000Y-84850000D03*
%TD*%
D20*
%TO.C,C37*%
X112430000Y-65800000D03*
X111470000Y-65800000D03*
%TD*%
D55*
%TO.C,L2*%
X103045000Y-70662500D03*
X103045000Y-69087500D03*
%TD*%
D13*
%TO.C,C5*%
X123050000Y-90100000D03*
X124010000Y-90100000D03*
%TD*%
D24*
%TO.C,C52*%
X108045000Y-69905000D03*
X108045000Y-68945000D03*
%TD*%
D20*
%TO.C,C22*%
X118545000Y-85765000D03*
X117585000Y-85765000D03*
%TD*%
D24*
%TO.C,C24*%
X114000000Y-91080000D03*
X114000000Y-90120000D03*
%TD*%
D13*
%TO.C,C25*%
X106870000Y-82200000D03*
X107830000Y-82200000D03*
%TD*%
D56*
%TO.C,U6*%
X107170000Y-101220000D03*
X106070000Y-101220000D03*
X104970000Y-101220000D03*
X103870000Y-101220000D03*
X102770000Y-101220000D03*
X101670000Y-101220000D03*
X100570000Y-101220000D03*
X99470000Y-101220000D03*
X109520000Y-101220000D03*
D57*
X97100000Y-109020000D03*
X111440000Y-109020000D03*
D56*
X108270000Y-101220000D03*
%TD*%
D13*
%TO.C,C51*%
X104465000Y-71025000D03*
X105425000Y-71025000D03*
%TD*%
D54*
%TO.C,R11*%
X118010000Y-90450000D03*
X116990000Y-90450000D03*
%TD*%
D22*
%TO.C,R14*%
X121900000Y-87150000D03*
X121900000Y-88170000D03*
%TD*%
D20*
%TO.C,C49*%
X110580000Y-66300000D03*
X109620000Y-66300000D03*
%TD*%
D54*
%TO.C,R3*%
X103510000Y-75550000D03*
X102490000Y-75550000D03*
%TD*%
%TO.C,R2*%
X104260000Y-81600000D03*
X103240000Y-81600000D03*
%TD*%
D13*
%TO.C,C53*%
X104215000Y-67025000D03*
X105175000Y-67025000D03*
%TD*%
D24*
%TO.C,C35*%
X109100000Y-74710000D03*
X109100000Y-73750000D03*
%TD*%
D20*
%TO.C,C3*%
X130210000Y-85700000D03*
X129250000Y-85700000D03*
%TD*%
D14*
%TO.C,Y2*%
X126730000Y-95200000D03*
X126730000Y-96200000D03*
X127140000Y-96200000D03*
X127140000Y-95200000D03*
%TD*%
D24*
%TO.C,C10*%
X106300000Y-97180000D03*
X106300000Y-96220000D03*
%TD*%
D40*
%TO.C,C41*%
X111875000Y-74400000D03*
X110325000Y-74400000D03*
%TD*%
D21*
%TO.C,C14*%
X130150000Y-87620000D03*
X130150000Y-88580000D03*
%TD*%
D44*
%TO.C,U9*%
X120237500Y-80702500D03*
X120237500Y-79752500D03*
X120237500Y-78802500D03*
X117962500Y-78802500D03*
X117962500Y-80702500D03*
%TD*%
D23*
%TO.C,C43*%
X113325000Y-74400000D03*
X114875000Y-74400000D03*
%TD*%
D24*
%TO.C,C39*%
X116550000Y-80700000D03*
X116550000Y-79740000D03*
%TD*%
D21*
%TO.C,C23*%
X111550000Y-79070000D03*
X111550000Y-80030000D03*
%TD*%
D13*
%TO.C,C36*%
X114470000Y-80650000D03*
X115430000Y-80650000D03*
%TD*%
%TO.C,C46*%
X113320000Y-66350000D03*
X114280000Y-66350000D03*
%TD*%
D49*
%TO.C,R7*%
X103250000Y-74410000D03*
X103250000Y-73390000D03*
%TD*%
D22*
%TO.C,R15*%
X115600000Y-78740000D03*
X115600000Y-79760000D03*
%TD*%
D58*
%TO.C,U10*%
X111650000Y-71250000D03*
X112850000Y-71250000D03*
X114050000Y-71250000D03*
X111650000Y-70050000D03*
X112850000Y-70050000D03*
X114050000Y-70050000D03*
X111650000Y-68850000D03*
X112850000Y-68850000D03*
X114050000Y-68850000D03*
D59*
X111100000Y-72500000D03*
X111600000Y-72500000D03*
X112100000Y-72500000D03*
X112600000Y-72500000D03*
X113100000Y-72500000D03*
X113600000Y-72500000D03*
X114100000Y-72500000D03*
X114600000Y-72500000D03*
D60*
X115300000Y-71800000D03*
X115300000Y-71300000D03*
X115300000Y-70800000D03*
X115300000Y-70300000D03*
X115300000Y-69800000D03*
X115300000Y-69300000D03*
X115300000Y-68800000D03*
X115300000Y-68300000D03*
D59*
X114600000Y-67600000D03*
X114100000Y-67600000D03*
X113600000Y-67600000D03*
X113100000Y-67600000D03*
X112600000Y-67600000D03*
X112100000Y-67600000D03*
X111600000Y-67600000D03*
X111100000Y-67600000D03*
D60*
X110400000Y-68300000D03*
X110400000Y-68800000D03*
X110400000Y-69300000D03*
X110400000Y-69800000D03*
X110400000Y-70300000D03*
X110400000Y-70800000D03*
X110400000Y-71300000D03*
X110400000Y-71800000D03*
%TD*%
D39*
%TO.C,D2*%
X105287500Y-63950000D03*
X102312500Y-63950000D03*
%TD*%
D20*
%TO.C,C30*%
X110960000Y-92000000D03*
X110000000Y-92000000D03*
%TD*%
D18*
%TO.C,R13*%
X111840000Y-92000000D03*
X112860000Y-92000000D03*
%TD*%
D19*
%TO.C,SW1*%
X107850000Y-73400000D03*
X104450000Y-73400000D03*
%TD*%
D24*
%TO.C,C28*%
X110900000Y-91030000D03*
X110900000Y-90070000D03*
%TD*%
D22*
%TO.C,R12*%
X120900000Y-87740000D03*
X120900000Y-88760000D03*
%TD*%
M02*
